<?xml version="1.0" standalone="no"?><!DOCTYPE svg PUBLIC "-//W3C//DTD SVG 1.1//EN" "http://www.w3.org/Graphics/SVG/1.1/DTD/svg11.dtd"><svg t="1704848149921" class="icon" viewBox="0 0 1024 1024" version="1.1" xmlns="http://www.w3.org/2000/svg" p-id="1583" xmlns:xlink="http://www.w3.org/1999/xlink" width="200" height="200"><path d="M725.333333 85.333333a213.333333 213.333333 0 0 1 213.12 204.074667L938.666667 298.666667v174.464a42.666667 42.666667 0 0 1-85.034667 4.949333L853.333333 473.173333V298.666667a128 128 0 0 0-120.490666-127.786667L725.333333 170.666667H213.333333a128 128 0 0 0-127.786666 120.490666L85.333333 298.666667v426.666666a128 128 0 0 0 106.368 126.165334l26.794667-28.330667 245.674667-245.674667a128 128 0 0 1 174.848-5.76l6.144 5.76 77.226666 77.226667a42.666667 42.666667 0 0 1-56.32 63.829333l-4.053333-3.541333-77.184-77.184a42.666667 42.666667 0 0 0-56.32-3.541333l-4.010667 3.541333L308.906667 853.333333H725.333333a42.666667 42.666667 0 0 1 4.992 85.034667L725.333333 938.666667H209.152c-1.152 0-2.346667 0-3.541333-0.085334L213.333333 938.666667a213.333333 213.333333 0 0 1-213.12-204.074667L0 725.333333V298.666667a213.333333 213.333333 0 0 1 204.074667-213.12L213.333333 85.333333h512z m95.701334 504.661334l60.330666 60.373333 60.330667-60.373333a42.666667 42.666667 0 0 1 60.330667 60.373333l-60.330667 60.330667 60.330667 60.330666a42.666667 42.666667 0 0 1-60.330667 60.330667l-60.330667-60.330667-60.330666 60.330667a42.666667 42.666667 0 0 1-60.373334-60.330667l60.373334-60.330666-60.373334-60.330667a42.666667 42.666667 0 0 1 60.373334-60.373333zM298.666667 298.666667a85.333333 85.333333 0 1 1 0 170.666666 85.333333 85.333333 0 0 1 0-170.666666z" fill="#333333" p-id="1584"></path></svg>