<?xml version="1.0" standalone="no"?><!DOCTYPE svg PUBLIC "-//W3C//DTD SVG 1.1//EN" "http://www.w3.org/Graphics/SVG/1.1/DTD/svg11.dtd"><svg t="1705407120731" class="icon" viewBox="0 0 1024 1024" version="1.1" xmlns="http://www.w3.org/2000/svg" p-id="3385" xmlns:xlink="http://www.w3.org/1999/xlink" width="200" height="200"><path d="M896 96H128c-17.066667 0-32 14.933333-32 32S110.933333 160 128 160h768c17.066667 0 32-14.933333 32-32s-14.933333-32-32-32zM535.466667 296.533333c-12.8-12.8-32-12.8-44.8 0l-213.333334 213.333334c-12.8 12.8-12.8 32 0 44.8s32 12.8 44.8 0l157.866667-157.866667V853.333333c0 17.066667 14.933333 32 32 32s32-14.933333 32-32V396.8l157.866667 157.866667c6.4 6.4 14.933333 8.533333 23.466666 8.533333s17.066667-2.133333 23.466667-8.533333c12.8-12.8 12.8-32 0-44.8l-213.333333-213.333334z" fill="#333333" p-id="3386" data-spm-anchor-id="a313x.collections_detail.0.i0.68403a81pmvKYm" class="selected"></path></svg>