<?xml version="1.0" standalone="no"?><!DOCTYPE svg PUBLIC "-//W3C//DTD SVG 1.1//EN" "http://www.w3.org/Graphics/SVG/1.1/DTD/svg11.dtd"><svg t="1701962141846" class="icon" viewBox="0 0 1024 1024" version="1.1" xmlns="http://www.w3.org/2000/svg" p-id="1485" data-darkreader-inline-fill="" xmlns:xlink="http://www.w3.org/1999/xlink" width="200" height="200"><path d="M981.333333 938.666667a42.666667 42.666667 0 1 1-85.333333 0C896 490.944 533.056 128 85.333333 128a42.666667 42.666667 0 1 1 0-85.333333c494.848 0 896 401.152 896 896z m-256 0a42.666667 42.666667 0 1 1-85.333333 0c0-306.346667-248.32-554.666667-554.666667-554.666667a42.666667 42.666667 0 1 1 0-85.333333c353.472 0 640 286.528 640 640z m-256 0a42.666667 42.666667 0 1 1-85.333333 0c0-164.949333-133.717333-298.666667-298.666667-298.666667a42.666667 42.666667 0 1 1 0-85.333333c212.074667 0 384 171.925333 384 384zM106.666667 981.333333a64 64 0 1 1 0-128 64 64 0 0 1 0 128z" fill="#000000" p-id="1486"></path></svg>